<svg width="515" height="303" viewBox="0 0 515 303" fill="none" xmlns="http://www.w3.org/2000/svg">
<path d="M7.07805e-07 255.5C7.07805e-07 244.167 1.5 231.333 4.5 217C7.83333 202.667 11.3333 187.667 15 172C19 156.333 22.6667 140.5 26 124.5C29.3333 108.167 31 92.5 31 77.5C31 62.5 28.6667 48.3333 24 35C19.6667 21.6667 11.6667 10.1667 7.07805e-07 0.49999H162C170.333 0.49999 178.167 2.16666 185.5 5.49999C192.833 8.83332 199.167 13.3333 204.5 19C210.167 24.6667 214.5 31.3333 217.5 39C220.833 46.3333 222.5 54.1666 222.5 62.5C222.5 76.8333 219.167 89.6667 212.5 101C205.833 112 197.333 121.333 187 129C176.667 136.667 165.167 142.5 152.5 146.5C139.833 150.167 127.5 152 115.5 152C99.8333 152 86.5 149 75.5 143C78.5 154.667 84 165.333 92 175C100 184.667 109.5 193 120.5 200C131.833 206.667 144.167 211.833 157.5 215.5C170.833 219.167 184.5 221 198.5 221C216.167 221 233.167 218 249.5 212V303C229.5 303 210.167 299.833 191.5 293.5C173.167 286.833 156.167 277.833 140.5 266.5C125.167 254.833 111.667 241 100 225C88.6667 209 80.1667 191.5 74.5 172.5C74.5 184.167 75.3333 196.833 77 210.5C78.6667 223.833 81.3333 236.833 85 249.5C89 261.833 94.1667 272.833 100.5 282.5C106.833 292.167 115 299 125 303H47.5C41.1667 303 35 301.833 29 299.5C23.3333 296.833 18.3333 293.333 14 289C9.66667 284.667 6.16667 279.667 3.5 274C1.16667 268 7.07805e-07 261.833 7.07805e-07 255.5ZM76.5 136C87.1667 136 97.1667 132.833 106.5 126.5C116.167 120.167 124.5 112.333 131.5 103C138.5 93.3333 144.167 83 148.5 72C152.833 60.6667 155 50.3333 155 41C155.333 31.3333 153.333 23.3333 149 17C144.667 10.6667 137.5 7.49999 127.5 7.49999C121.5 7.49999 116.167 10.1667 111.5 15.5C106.833 20.5 102.667 27.1667 99 35.5C95.6667 43.5 92.6667 52.5 90 62.5C87.3333 72.5 85 82.3333 83 92C81.3333 101.333 79.8333 110 78.5 118C77.5 125.667 76.8333 131.667 76.5 136ZM264.52 0.49999H365.02C352.353 11.1667 343.853 23.8333 339.52 38.5C335.186 52.8333 333.353 68.3333 334.02 85V92.5C334.02 98.8333 336.186 104.333 340.52 109C345.186 113.333 350.52 115.5 356.52 115.5H422.02C428.02 115.5 433.186 113.333 437.52 109C442.186 104.333 444.52 99 444.52 93V85C445.186 68.3333 443.353 52.8333 439.02 38.5C434.686 23.8333 426.186 11.1667 413.52 0.49999H514.02C502.353 10.1667 494.186 21.6667 489.52 35C485.186 48.3333 483.02 62.5 483.02 77.5C483.02 92.5 484.686 108.167 488.02 124.5C491.353 140.5 494.853 156.333 498.52 172C502.52 187.667 506.02 202.667 509.02 217C512.353 231.333 514.02 244.167 514.02 255.5C514.02 261.833 512.686 268 510.02 274C507.686 279.667 504.353 284.667 500.02 289C495.686 293.333 490.686 296.833 485.02 299.5C479.353 301.833 473.186 303 466.52 303H403.02C410.686 300.667 417.186 295.167 422.52 286.5C427.853 277.833 432.186 267 435.52 254C438.853 240.667 441.186 225.333 442.52 208C443.853 190.667 444.52 172 444.52 152V145C444.52 138.667 442.186 133.333 437.52 129C433.186 124.667 428.02 122.5 422.02 122.5H356.52C350.52 122.5 345.186 124.667 340.52 129C336.186 133.333 334.02 138.667 334.02 145V152C334.02 172 334.686 190.667 336.02 208C337.686 225.333 340.02 240.667 343.02 254C346.353 267 350.686 277.833 356.02 286.5C361.353 295.167 367.853 300.667 375.52 303H312.02C305.686 303 299.52 301.833 293.52 299.5C287.853 296.833 282.853 293.333 278.52 289C274.186 284.667 270.686 279.667 268.02 274C265.686 268 264.52 261.833 264.52 255.5C264.52 244.167 266.02 231.333 269.02 217C272.353 202.667 275.853 187.667 279.52 172C283.52 156.333 287.186 140.5 290.52 124.5C293.853 108.167 295.52 92.5 295.52 77.5C295.52 62.5 293.186 48.3333 288.52 35C284.186 21.6667 276.186 10.1667 264.52 0.49999Z" fill="url(#paint0_linear_231_2883)"/>
<defs>
<linearGradient id="paint0_linear_231_2883" x1="404.5" y1="21" x2="389.5" y2="428" gradientUnits="userSpaceOnUse">
<stop stop-color="#09439F"/>
<stop offset="1" stop-color="#108FB9"/>
</linearGradient>
</defs>
</svg>
