<svg width="434" height="388" viewBox="0 0 434 388" fill="none" xmlns="http://www.w3.org/2000/svg">
<path d="M119 372.5C95 368.5 84.5 342.5 70 327C64.5 346 66 367.5 45.5 376.5C19.5 387.5 5 373.5 3.5 351.5C0.500001 302.5 10.5 248 20 198C29.5 147 32.5 89 49.5 39C62.5 0.499969 100.5 -2.5034e-05 129.5 13.5C166 30.5 171 66 166 106C163 129.5 159 154.5 151 178C143 201.5 128 221 117.5 243C105 269.5 112.5 280.5 127.5 300C137 312.5 160 331 158 349C156 368.5 135 375 119 372.5ZM86 180.5C102 149 105 117 103.5 85.5C97.5 117 92 149 86 180.5ZM353.844 372C292.844 386.5 331.844 275 330.844 246.5C315.844 245 291.344 240.5 281.844 253.5C267.844 273.5 279.344 306.5 269.344 328C261.344 344.5 245.844 352.5 230.344 346.5C212.344 339.5 211.344 320 212.844 302C216.344 251.5 231.344 197.5 240.344 146.5C244.844 119 254.344 33.5 302.844 63C337.344 84 279.844 154.5 294.344 188C298.844 197.5 316.344 198.5 327.844 195.5C344.344 191.5 343.844 186.5 348.344 171C355.844 145.5 359.844 119.5 366.344 94C370.844 73.5 373.844 43 397.844 38C420.344 33 433.844 48.5 431.844 68.5C429.844 91.5 418.844 118.5 413.844 142C408.344 170 402.844 197.5 397.344 225C391.844 255.5 386.344 286.5 381.844 317C378.844 337.5 381.844 365 353.844 372Z" fill="url(#paint0_linear_84_2732)"/>
<defs>
<linearGradient id="paint0_linear_84_2732" x1="49.5" y1="57.5" x2="336" y2="428" gradientUnits="userSpaceOnUse">
<stop stop-color="#0089E4"/>
<stop offset="0.998669" stop-color="#0B2893"/>
</linearGradient>
</defs>
</svg>
